<?xml version="1.0" encoding="UTF-8" standalone="no"?>
<!DOCTYPE svg PUBLIC "-//W3C//DTD SVG 1.0//EN" "http://www.w3.org/TR/2001/REC-SVG-20010904/DTD/svg10.dtd">
<!-- Created with Inkscape (http://www.inkscape.org/) by Steadfast-->
<svg
   xmlns:svg="http://www.w3.org/2000/svg"
   xmlns="http://www.w3.org/2000/svg"
   version="1.0"
   width="500"
   height="377"
   id="svg2490">
  <defs
     id="defs2492" />
  <g
     id="layer1">
    <path
       d="M 12.078328,30.508425 L 95.287998,30.508425 L 95.287998,90.649205 L 12.078328,90.649205 L 12.078328,30.508425 z M 9.9999985,127.98041 L 10.120758,127.98041 L 10.120758,123.52502 L 133.47978,123.52502 L 135.51363,111.55712 L 138.9648,94.796975 L 144.18289,80.312185 L 151.44753,65.763845 L 159.05537,54.520495 L 168.09327,42.953005 L 175.38969,36.692575 L 180.87471,32.434215 L 187.80249,27.178005 L 197.20903,22.214145 L 205.28085,18.890085 L 212.99039,16.214305 L 223.01978,13.691075 L 236.72917,11.847895 L 263.77294,9.769565 L 263.77294,88.574685 L 245.04886,90.646655 L 236.84357,92.763125 L 231.74625,94.739775 L 228.40947,96.868955 L 226.21038,98.616785 L 222.18718,103.2692 L 218.01144,111.38551 L 216.26996,123.52502 L 351.9973,123.52502 C 356.48447,123.03563 361.04155,122.78775 365.65584,122.78775 C 434.13919,122.78775 490,177.6952 490,245.00909 C 490,312.32934 434.13919,367.23043 365.65584,367.23043 C 297.17248,367.23043 241.31167,312.32934 241.31167,245.00909 C 241.31167,228.20445 244.79463,212.1625 251.08684,197.56331 L 217.05172,197.56331 L 217.05172,360.23909 L 130.64511,360.23909 L 130.64511,197.56331 L 89.046639,197.56331 L 89.046639,358.5993 L 9.9999985,358.5993 L 9.9999985,127.98041 z M 365.65584,192.9681 C 393.57671,192.9681 416.34305,215.74715 416.34305,243.66802 C 416.34305,271.58254 393.57671,294.34889 365.65584,294.34889 C 337.73496,294.34889 314.96226,271.58254 314.96226,243.66802 C 314.96226,215.74715 337.73496,192.9681 365.65584,192.9681"
       id="path69"
       style="fill:#0072b5;fill-opacity:1;fill-rule:evenodd;stroke:none" />
  </g>
</svg>
